
        <svg xmlns="http://www.w3.org/2000/svg" xmlns:xlink="http://www.w3.org/1999/xlink" version="1.1" width="3182.370820668693" height="1454.407294832827" viewBox="0 0 3182.370820668693 1454.407294832827">
			
			<g transform="scale(9.118541033434651) translate(10, 10)">
				<defs id="SvgjsDefs2415"/><g id="SvgjsG2416" featureKey="symbolGroupContainer" transform="matrix(0.5578348694386732,0,0,0.5578348694386732,-0.0005580604343806918,0)" fill="#000"><path xmlns="http://www.w3.org/2000/svg" d="M125.64 7.519c.819-.613 1.999-2.357 4.883-5.242-2.885 2.885-4.629 4.064-5.242 4.883.145-1.013-.254-3.08-.254-7.16 0 4.08-.399 6.147-.253 7.16-.614-.819-2.358-1.999-5.242-4.883 2.885 2.885 4.064 4.628 4.884 5.242-1.013-.145-3.08.254-7.16.253 4.08 0 6.147.399 7.16.254-.819.613-1.999 2.357-4.884 5.242 2.885-2.885 4.629-4.064 5.242-4.883-.145 1.013.254 3.08.254 7.16 0-4.08.399-6.147.254-7.16.613.819 2.357 1.999 5.242 4.883-2.885-2.885-4.064-4.628-4.883-5.242 1.013.146 3.08-.254 7.16-.253-4.081-.001-6.148-.4-7.161-.254zM109.864 5.209l-1.48 2.563 1.48 2.563h2.96l1.48-2.563-1.48-2.563zM137.249 5.209l-1.48 2.563 1.48 2.563h2.96l1.48-2.563-1.48-2.563zM132.8 242.301c-4.08 0-6.147-.399-7.16-.254.819-.613 1.999-2.357 4.883-5.242-2.885 2.885-4.629 4.064-5.242 4.883.145-1.013-.254-3.08-.254-7.16 0 4.08-.399 6.147-.253 7.16-.614-.819-2.358-1.999-5.242-4.883 2.885 2.885 4.065 4.629 4.884 5.242-1.013-.145-3.08.254-7.16.254 4.08 0 6.147.399 7.16.254-.819.614-1.999 2.357-4.884 5.242 2.885-2.885 4.629-4.064 5.242-4.883-.145 1.013.254 3.08.254 7.16 0-4.08.399-6.147.254-7.16.613.819 2.357 1.999 5.242 4.883-2.885-2.885-4.064-4.628-4.883-5.242 1.012.145 3.079-.254 7.159-.254zM109.864 239.737l-1.48 2.564 1.48 2.563h2.96l1.48-2.563-1.48-2.564zM137.249 239.737l-1.48 2.564 1.48 2.563h2.96l1.48-2.563-1.48-2.564zM242.913 125.282c1.013.145 3.08-.254 7.16-.254-4.08 0-6.147-.399-7.16-.253.819-.614 1.999-2.358 4.883-5.242-2.885 2.885-4.629 4.064-5.242 4.884.145-1.013-.254-3.08-.254-7.16 0 4.08-.399 6.147-.254 7.16-.614-.819-2.357-1.999-5.242-4.883 2.885 2.885 4.064 4.629 4.883 5.242-1.013-.145-3.08.254-7.16.254 4.08 0 6.147.399 7.16.253-.819.614-1.998 2.357-4.883 5.242 2.885-2.885 4.628-4.064 5.242-4.883-.145 1.013.254 3.08.253 7.16 0-4.08.399-6.147.254-7.16.613.819 2.357 1.999 5.242 4.883-2.883-2.886-4.063-4.63-4.882-5.243zM239.737 112.824l2.564 1.48 2.563-1.48v-2.96l-2.563-1.48-2.564 1.48zM239.737 137.249v2.96l2.564 1.48 2.563-1.48v-2.96l-2.563-1.48zM2.277 130.524c2.884-2.885 4.628-4.064 5.242-4.883-.145 1.013.254 3.08.254 7.16 0-4.08.399-6.147.254-7.16.613.819 2.357 1.999 5.242 4.884-2.885-2.885-4.064-4.629-4.883-5.242 1.013.145 3.08-.254 7.16-.254-4.079 0-6.147-.399-7.16-.253.819-.614 1.998-2.358 4.883-5.242-2.885 2.885-4.629 4.065-5.242 4.884.146-1.013-.253-3.08-.253-7.16 0 4.079-.399 6.147-.254 7.16-.613-.819-2.357-1.999-5.242-4.883 2.885 2.885 4.064 4.629 4.883 5.242-1.013-.145-3.08.254-7.16.254 4.08 0 6.147.399 7.16.253-.82.611-2 2.355-4.884 5.24zm5.495-5.496zm0 0zm0 0zM10.336 112.824v-2.96l-2.564-1.48-2.563 1.48v2.96l2.563 1.48zM10.336 137.249l-2.564-1.48-2.563 1.48v2.96l2.563 1.48 2.564-1.48zM207.336 41.858c-1.013-.145-3.08.254-7.16.254 4.08 0 6.147.399 7.16.254-.819.613-1.999 2.357-4.884 5.242 2.885-2.885 4.629-4.065 5.242-4.883-.145 1.013.254 3.08.254 7.16 0-4.08.399-6.147.253-7.16.613.819 2.357 1.999 5.242 4.883-2.885-2.885-4.064-4.629-4.883-5.242 1.013.146 3.08-.254 7.16-.253-4.079 0-6.147-.399-7.16-.254.819-.613 1.999-2.358 4.883-5.242-2.885 2.885-4.629 4.064-5.242 4.884.145-1.013-.254-3.08-.254-7.16 0 4.08-.399 6.147-.253 7.16-.614-.819-2.357-1.999-5.242-4.884 2.885 2.884 4.065 4.628 4.884 5.241zm.613.254zm0 0zm0 0zM200.365 34.529l.766-2.859-2.092-2.093-2.859.766-.766 2.859 2.093 2.093zM214.778 52.566l2.093 2.093 2.859-.766.766-2.859-2.093-2.093-2.859.767zM42.725 208.202c1.013.145 3.08-.254 7.16-.253-4.08 0-6.147-.399-7.16-.254.819-.613 1.999-2.357 4.883-5.242-2.885 2.885-4.629 4.065-5.242 4.884.145-1.013-.254-3.08-.254-7.16 0 4.08-.399 6.147-.254 7.16-.613-.819-2.357-1.999-5.242-4.884 2.885 2.885 4.064 4.629 4.883 5.242-1.013-.145-3.08.254-7.16.254 4.08 0 6.147.399 7.16.254-.819.613-1.999 2.357-4.883 5.242 2.885-2.885 4.629-4.064 5.242-4.884-.145 1.013.254 3.08.254 7.16 0-4.08.399-6.147.254-7.16.613.819 2.357 1.999 5.242 4.884-2.885-2.885-4.064-4.629-4.883-5.243zM35.295 197.507l-2.093-2.093-2.859.766-.766 2.859 2.093 2.093 2.859-.766zM49.707 215.544l-.766 2.859 2.093 2.093 2.859-.766.766-2.859-2.093-2.093zM215.733 207.949c-4.08 0-6.147-.399-7.16-.254.819-.613 1.999-2.357 4.884-5.242-2.885 2.885-4.629 4.064-5.242 4.883.145-1.013-.254-3.08-.253-7.16 0 4.08-.399 6.147-.254 7.16-.613-.819-2.357-1.998-5.242-4.883 2.885 2.885 4.064 4.629 4.883 5.242-1.013-.145-3.08.254-7.16.254 4.08 0 6.147.399 7.16.253-.819.613-1.999 2.357-4.883 5.242 2.885-2.885 4.629-4.064 5.242-4.883-.145 1.013.254 3.08.254 7.16 0-4.079.399-6.147.254-7.16.614.819 2.358 1.999 5.242 4.883-2.885-2.885-4.065-4.629-4.884-5.242 1.012.146 3.079-.253 7.159-.253zm-7.772 0zm0 0zm0 0zM216.871 195.414l-2.093 2.093.766 2.858 2.859.767 2.093-2.093-.766-2.859zM197.507 214.778l-2.093 2.093.766 2.859 2.859.766 2.093-2.093-.767-2.859zM34.352 42.112c4.08 0 6.147.399 7.16.254-.819.613-1.999 2.357-4.883 5.242 2.885-2.885 4.629-4.064 5.242-4.883-.145 1.013.254 3.08.254 7.16 0-4.08.399-6.147.254-7.16.613.819 2.357 1.999 5.242 4.883-2.885-2.885-4.065-4.629-4.884-5.242 1.013.145 3.08-.254 7.16-.254-4.08 0-6.147-.399-7.16-.253.819-.613 1.999-2.357 4.884-5.242-2.885 2.885-4.629 4.064-5.242 4.883.145-1.013-.254-3.08-.253-7.16 0 4.08-.399 6.147-.254 7.16-.613-.819-2.357-1.999-5.242-4.883 2.885 2.885 4.064 4.629 4.883 5.242-1.014-.146-3.081.253-7.161.253zM51.034 29.577l-2.093 2.093.766 2.859 2.859.766 2.093-2.093-.766-2.859zM33.202 54.659l2.093-2.093-.766-2.859-2.859-.766-2.093 2.093.766 2.859zM169.432 17.163c-.522.88-.944 2.943-2.505 6.712 1.561-3.769 2.721-5.527 2.974-6.518.253.991 1.413 2.748 2.975 6.518-1.561-3.769-1.984-5.831-2.506-6.712.88.522 2.943.944 6.712 2.505-3.769-1.561-5.526-2.721-6.518-2.974.992-.253 2.749-1.413 6.518-2.974-3.769 1.561-5.832 1.984-6.712 2.506.522-.88.944-2.943 2.505-6.712-1.561 3.769-2.721 5.526-2.974 6.518-.253-.992-1.413-2.749-2.975-6.518 1.561 3.769 1.984 5.832 2.506 6.712-.88-.522-2.943-.945-6.712-2.506 3.769 1.561 5.526 2.721 6.518 2.974-.992.253-2.749 1.413-6.518 2.974 3.77-1.561 5.832-1.983 6.712-2.505zM157.645 14.392l2.348-1.802-.386-2.934-2.735-1.133-2.348 1.802.386 2.935zM182.946 24.872l2.348-1.802-.386-2.935-2.735-1.132-2.348 1.802.386 2.934zM80.625 232.903c.522-.88.944-2.943 2.505-6.712-1.561 3.769-2.721 5.526-2.974 6.518-.253-.991-1.413-2.749-2.975-6.518 1.561 3.769 1.984 5.832 2.506 6.712-.88-.522-2.943-.944-6.712-2.506 3.769 1.561 5.526 2.721 6.518 2.974-.992.253-2.749 1.413-6.518 2.974 3.769-1.561 5.832-1.984 6.712-2.506-.522.88-.944 2.943-2.505 6.712 1.561-3.769 2.721-5.527 2.974-6.518.253.992 1.413 2.749 2.975 6.518-1.561-3.769-1.984-5.831-2.506-6.712.88.522 2.943.944 6.712 2.506-3.769-1.561-5.526-2.721-6.518-2.974.991-.253 2.748-1.413 6.518-2.974-3.769 1.562-5.832 1.985-6.712 2.506zm-.469.469zm0 0zm0 0zm0 0zM67.127 225.201l-2.348 1.802.386 2.935 2.735 1.132 2.348-1.802-.386-2.934zM92.428 235.681l-2.348 1.802.386 2.934 2.735 1.132 2.348-1.801-.387-2.935zM234.042 169.901c.991-.253 2.749-1.413 6.518-2.975-3.769 1.561-5.831 1.984-6.712 2.506.522-.88.945-2.943 2.506-6.712-1.561 3.769-2.721 5.526-2.974 6.518-.253-.991-1.413-2.749-2.974-6.518 1.561 3.769 1.984 5.832 2.505 6.712-.88-.522-2.943-.944-6.712-2.505 3.769 1.561 5.526 2.721 6.518 2.974-.992.253-2.748 1.413-6.518 2.975 3.769-1.561 5.832-1.984 6.712-2.506-.522.88-.944 2.943-2.506 6.712 1.561-3.769 2.721-5.526 2.974-6.518.253.991 1.413 2.749 2.974 6.518-1.561-3.769-1.984-5.832-2.506-6.712.88.522 2.943.944 6.712 2.505-3.769-1.561-5.526-2.721-6.517-2.974zM236.813 154.91l-1.132 2.735 1.801 2.348 2.935-.386 1.133-2.735-1.802-2.348zM226.334 180.211l-1.133 2.735 1.802 2.348 2.935-.386 1.132-2.735-1.802-2.348zM16.038 80.156c-.991.253-2.749 1.413-6.517 2.975 3.769-1.561 5.832-1.984 6.712-2.506-.522.88-.944 2.943-2.506 6.712 1.561-3.769 2.721-5.526 2.974-6.518.253.991 1.413 2.748 2.974 6.518-1.561-3.769-1.984-5.832-2.506-6.712.88.522 2.943.944 6.712 2.505-3.769-1.561-5.527-2.721-6.518-2.974.991-.253 2.749-1.413 6.518-2.975-3.769 1.561-5.832 1.984-6.712 2.506.522-.88.944-2.943 2.506-6.712-1.561 3.769-2.721 5.526-2.974 6.518-.253-.991-1.413-2.749-2.974-6.518 1.561 3.769 1.984 5.832 2.506 6.712-.88-.522-2.943-.944-6.712-2.505 3.768 1.561 5.525 2.721 6.517 2.974zM23.739 69.861l1.133-2.734-1.802-2.348-2.935.386-1.132 2.735 1.801 2.348zM13.26 95.162l1.132-2.734-1.802-2.348-2.934.386-1.133 2.735 1.802 2.348zM233.37 79.488c-.253-.992-1.413-2.749-2.974-6.518 1.561 3.769 1.984 5.832 2.505 6.712-.88-.522-2.943-.944-6.712-2.506 3.769 1.561 5.526 2.721 6.518 2.974-.992.253-2.749 1.413-6.518 2.975 3.769-1.561 5.832-1.984 6.712-2.506-.522.88-.944 2.943-2.505 6.712 1.561-3.769 2.721-5.526 2.974-6.518.253.991 1.413 2.749 2.974 6.518-1.561-3.769-1.984-5.832-2.506-6.712.88.522 2.943.944 6.712 2.506-3.769-1.561-5.526-2.721-6.518-2.974.991-.253 2.749-1.413 6.518-2.975-3.769 1.561-5.832 1.984-6.712 2.506.522-.88.944-2.943 2.505-6.712-1.56 3.769-2.72 5.527-2.973 6.518zm0 .663zm0 0zm0 0zm0 0zM229.266 70.243l1.801-2.348-1.132-2.735-2.935-.386-1.801 2.348 1.132 2.735zM237.481 90.075l-1.802 2.348 1.133 2.734 2.934.387 1.802-2.349-1.133-2.734zM16.696 170.569c.253.992 1.413 2.749 2.974 6.518-1.561-3.769-1.984-5.832-2.506-6.712.88.522 2.943.944 6.712 2.506-3.769-1.561-5.526-2.721-6.518-2.974.992-.253 2.749-1.413 6.517-2.975-3.769 1.561-5.831 1.984-6.712 2.506.522-.88.944-2.943 2.505-6.712-1.561 3.769-2.721 5.527-2.974 6.518-.253-.991-1.413-2.749-2.974-6.518 1.561 3.769 1.983 5.832 2.505 6.712-.88-.522-2.943-.944-6.712-2.506 3.769 1.561 5.527 2.721 6.518 2.974-.991.253-2.748 1.413-6.518 2.975 3.769-1.561 5.832-1.984 6.712-2.506-.522.88-.944 2.943-2.505 6.712 1.563-3.769 2.723-5.527 2.976-6.518zM12.592 159.998l1.802-2.348-1.133-2.734-2.934-.387-1.802 2.349 1.133 2.734zM20.807 179.83l-1.802 2.348 1.133 2.734 2.934.387 1.802-2.349-1.133-2.734zM170.585 233.37c.992-.253 2.749-1.413 6.518-2.974-3.769 1.561-5.832 1.984-6.712 2.505.522-.88.944-2.943 2.506-6.712-1.561 3.769-2.721 5.527-2.975 6.518-.253-.991-1.413-2.749-2.975-6.518 1.562 3.769 1.984 5.832 2.506 6.712-.88-.522-2.943-.944-6.712-2.505 3.769 1.561 5.526 2.721 6.518 2.974-.991.253-2.748 1.413-6.517 2.974 3.769-1.561 5.832-1.984 6.712-2.506-.522.88-.944 2.943-2.506 6.712 1.561-3.769 2.721-5.526 2.974-6.518.254.992 1.413 2.749 2.975 6.517-1.561-3.769-1.984-5.831-2.506-6.712.88.522 2.943.944 6.712 2.505-3.77-1.559-5.527-2.719-6.518-2.972zm-.663 0zm0 0zm0 0zm0 0zM180.216 226.331l-.386 2.935 2.348 1.802 2.734-1.133.387-2.935-2.348-1.801zM154.916 236.812l-.387 2.934 2.349 1.802 2.734-1.133.386-2.934-2.348-1.802zM87.348 13.722c-3.769 1.561-5.832 1.984-6.712 2.506.522-.88.944-2.943 2.506-6.712-1.561 3.769-2.721 5.526-2.974 6.518-.253-.991-1.413-2.749-2.975-6.518 1.562 3.769 1.984 5.832 2.506 6.712-.88-.522-2.943-.944-6.712-2.505 3.769 1.561 5.526 2.721 6.518 2.974-.991.253-2.748 1.413-6.518 2.974 3.769-1.561 5.832-1.984 6.712-2.506-.522.88-.944 2.943-2.506 6.712 1.561-3.769 2.721-5.526 2.974-6.518.253.991 1.413 2.749 2.975 6.518-1.561-3.769-1.984-5.832-2.506-6.712.88.522 2.943.944 6.712 2.505-3.769-1.561-5.527-2.721-6.518-2.974.991-.253 2.748-1.413 6.518-2.974zm-7.181 2.974zm0 0zm0 0zm0 0zM95.157 13.261l.386-2.935-2.348-1.801-2.734 1.133-.386 2.934 2.348 1.802zM69.857 23.741l.386-2.934-2.348-1.802-2.734 1.133-.387 2.934 2.349 1.802z"/></g><g id="SvgjsG2417" featureKey="symbolFeature-0" transform="matrix(0.9962037533801864,0,0,0.9962037533801864,20.36719470523542,20.061785913073187)" fill="#000"><g xmlns="http://www.w3.org/2000/svg"><path d="M82.2,36.3c0.4-0.9-0.6-2.3-3-4.1c-1.1-0.8-2.5-0.9-3.6-0.2c-0.1,0.1-0.2,0.1-0.3,0.2c-0.1,0.1-0.1,0.1-0.2,0.2l-0.5-0.5   c0.2-0.1,0.3-0.3,0.5-0.4c0,0,0,0,0,0c0.2-0.1,0.3-0.2,0.5-0.4c0.2-0.2,0.4-0.5,0.4-0.9c0-0.4-0.2-0.8-0.7-1.2   c-0.6-0.7-1.5-1.4-2.6-1.9c0,0,0-0.1,0-0.1c0-0.3-0.2-0.5-0.7-0.7c0,0,0,0,0-0.1L57,5.8c-0.6-0.9-1.9-1.1-2.8-0.5l-2,1.4   c-0.5,0.3-0.8,0.8-0.9,1.3c-0.1,0.5,0,1.1,0.4,1.5L66,28.9c-0.3,0.5-0.5,1.1-0.7,1.8c-0.2,0.3-0.2,0.7-0.2,1   c-0.9,0.1-1.7,0.2-1.7,0.2c0,0,0,0,0,0l-2.3,0.4c0.2-1.3,0.2-3.1-0.2-5c0.4-0.2,0.6-0.6,0.6-1.1c0-0.6-0.4-1.1-0.9-1.2   c-0.2-1.4-1.2-6.1-7.5-5.6c-5.8,0.5-6.5,4.5-6.6,6c-0.5,0.1-0.9,0.6-0.9,1.2c0,0.4,0.2,0.8,0.5,1c-0.1,0.4-0.1,0.9,0.2,1.3   c0,0.5,0.3,3.7,1.7,6.8c0,0,0,0.1,0.1,0.1c0,0,0.4,0.2,0.9,0.5c-1.7,0.8-2.8,1.5-3.4,2c-0.3,0.2-0.6,0.4-0.9,0.8   c0,0-3.4,4.3,1.3,8.2c0.8,0.7,1.5,1.2,2.2,1.7c0.1,0.3,0.2,0.7,0.3,1.2c0.3,1.1,0.7,2.4,0.8,3.3c0.2,1.1,0.7,2,1.6,2.7   c-0.2,0.7-1,3.7-0.5,8c0.6,4.4,0.5,9.1,0.5,9.7c-0.6,0.2-1,0.6-1.4,1.3c-0.4,0.8-0.5,1.7-0.2,2.5c0,0.3-0.1,1.6,0.4,2.3l0.5,6.1   c0,0,0,0.1,0,0.1c0,0,0.2,0.4,0.6,0.8c-0.3,0.6-1.2,2.2-0.6,3l0,0.1c0.6,0.8,2.1,2.7,4.3,2.7c0.2,0,0.4,0,0.5,0   c2-0.3,2.8-1.7,3-2.2c0.2-0.4,0.4-1,0.2-1.3c-0.2-0.2-0.3-1-0.3-1.5c1.2-0.8,1.5-2,1.5-2l0.6-5.6c0.6-0.7,0.6-1.9,0.6-2.1   c0.1-0.3,0.5-2.2,0.4-3.1c-0.1-0.8-0.9-1-1.5-1.1c0.1-1.2,0.7-6.6,1.8-9.5l1.9,3.9c0,0,0,0.1,0.1,0.1c0,1,0.3,1.7,0.3,1.8l0.7,1.9   l0.1,2.1l0.4,13.6c0,0,0,0.1,0,0.1c0,0,0.1,0.3,0.4,0.6c0,0.5-0.1,2.7,0.9,3.6c0.3,0.3,0.7,0.7,1,1.1c0.8,1,1.8,2.1,3.4,2.1   c0.5,0,1-0.1,1.5-0.3c1.5-0.5,2.2-1,2.5-1.7c0.5-1.1-0.2-2.8-1.4-5.5l0.5-14.6l0.4-5.5c0,0,0,0,0,0c0,0,0,0,0,0   c0-0.7,0-1.6-0.3-2.2c-0.1-0.3-0.3-0.5-0.5-0.8c-0.2-0.7-2.6-9.1-4.1-11.1c-0.3-0.4-0.7-0.7-1.1-0.9c-0.2-0.1-0.3-0.2-0.4-0.3   c0,0,0,0,0,0c0.1-0.6,0-1.2-0.3-1.8c-0.7-1.4-1-4.5-1.2-6.9c0.5-0.9,0.9-1.8,1.3-2.6c1.6-0.6,3.5-1.1,3.5-1.1   c0.1,0,0.2-0.1,0.2-0.2l0.1-0.6c0,0,0.1,0,0.1,0c0.5,0,1.3,0.1,2.1,0.1c0.4,0,0.8,0,1.2,0c0.6,0.5,1.2,0.9,1.9,1.1   c0,0.5,0.1,1.3,0.4,1.7c0.1,0.1,0.2,0.2,0.5,0.2c0.1,0,0.1,0,0.2,0c1.2-0.2,3.4-1.9,3.8-2.9c0.1-0.4,0-0.6-0.1-0.7   c-0.1-0.1-0.1-0.1-0.1-0.1c-0.1-0.1-0.2-0.2-0.4-0.3C81.7,37.3,82,36.8,82.2,36.3z M75.6,32.6c0.1-0.1,0.1-0.1,0.2-0.1   c0.4-0.2,0.9-0.4,1.4-0.4c0.6,0,1.2,0.2,1.7,0.6c3,2.2,3,3.2,2.9,3.5c-0.3,0.8-1,1.4-2.8,3c-0.5,0.4-1,0.6-1.5,0.6c0,0,0,0,0,0   c-1.1,0-2.1-0.9-3.3-1.9l-0.2-0.1c-0.4-0.4-0.7-0.9-0.6-1.5c0-1.2,1-2.6,1.9-3.3c0,0,0,0,0,0c0,0,0,0,0,0   C75.4,32.8,75.5,32.7,75.6,32.6z M74.8,32.7c-0.6,0.6-1.1,1.3-1.5,2.1L72.7,34c0.1-0.1,0.2-0.3,0.2-0.4c0-0.1,0.1-0.1,0.1-0.2   c0-0.1,0.1-0.1,0.1-0.1c0.3-0.3,0.7-0.7,1.1-1.1L74.8,32.7z M67.4,40.5c0,0-0.1,0.1-0.1,0.2c-0.4,0.8-0.8,1.6-1.2,2.5   c-0.1,0-0.1,0.1-0.1,0.2c-1.7,3.3-3.9,7-5.4,7.6c-2.9,1.1-7-1.5-7.3-1.6c0.6-1.6,1.6-3.9,3-5.4l1.4,0.9c0,0,0.1,0,0.1,0   c0.1,0,0.1,0,0.2-0.1c0,0,4.1-4.5,7.4-8.4c0.1,0.1,0.1,0.2,0.2,0.2c0.6,0.4,1.6,1,2.9,1.1C68.4,38.3,67.9,39.3,67.4,40.5z    M75.3,30.2c0,0.2,0,0.4-0.2,0.5C75,30.9,74.9,31,74.8,31c0,0,0,0,0,0c-1.1,0.6-1.6,1.2-2,1.9c-0.1,0.1-0.2,0.3-0.2,0.4   c-0.2,0.3-0.3,0.5-0.6,0.8c-0.4,0.5-0.8,0.8-1.3,0.8c0,0,0,0,0,0c-0.4,0-0.8-0.1-1.3-0.3c-0.1-0.1-0.3-0.1-0.4-0.2c0,0-0.1,0-0.1,0   c-0.2-0.1-0.4-0.2-0.7-0.3c-0.6-0.3-1-0.5-1.3-0.7c0,0,0-0.1-0.1-0.1c0,0,0,0-0.1,0c-0.5-0.4-0.8-0.7-0.9-0.9c0,0,0-0.1-0.1-0.1   c0,0,0-0.1,0-0.1c0-0.3,0-0.5,0.1-0.8c0.5,0.6,1.3,1.5,2.2,1.9l0.1,0c0.6,0.2,1.3,0.5,2,0.5c0.9,0,1.8-0.5,2.4-1.4   c1.2-1.7,2.2-2.7,2.6-2.9C75.2,29.7,75.3,30,75.3,30.2z M65.1,32.2c0,0,0,0.1,0.2,0.3c0.2,0.4,0.5,0.7,0.9,1l-0.9,1.5   c-0.2,0.3-0.2,0.6-0.1,0.9c-0.1,0.1-0.2,0.3-0.4,0.4l-1.1-4.1C64,32.3,64.5,32.2,65.1,32.2C65.1,32.2,65.1,32.2,65.1,32.2   C65.1,32.2,65.1,32.2,65.1,32.2z M68.7,37.4c-1.2-0.1-2.2-0.6-2.8-1.1c-0.3-0.2-0.4-0.7-0.2-1l0.9-1.5c0.7,0.4,1.4,0.7,2,1   c0.2,0.1,0.4,0.2,0.6,0.3c0.3,0.1,0.6,0.2,0.8,0.3l-0.6,1.6C69.3,37.2,69,37.4,68.7,37.4z M72.2,26.9c-0.1,0-0.1,0.1-0.1,0.2   c0,0.1,0.1,0.2,0.2,0.2c1.1,0.5,2,1.1,2.5,1.7c-0.7,0.4-1.8,1.7-2.7,3c-0.6,0.8-1.2,1.2-2,1.2c-0.7,0-1.3-0.3-1.9-0.5l-0.1,0   c-0.9-0.4-2-1.7-2.3-2.1c0.8-3.3,3.8-4.4,4.9-4.4c0.2,0,0.3,0,0.3,0C72.1,26.7,72.2,26.9,72.2,26.9z M64.9,26.6l1.3-1l0.5,0.6   l-1.3,1L64.9,26.6z M64.2,25.7l1.3-0.9c0,0,0,0,0,0l0.4,0.5l-1.3,1L64.2,25.7z M69.2,23.1L67.8,24l-0.5-0.6l1.3-1L69.2,23.1z    M69.8,24l-1.3,1l-0.4-0.5l1.4-1L69.8,24z M70.6,25l-1.4,1l-0.5-0.6l1.4-1L70.6,25z M71.1,25.8c-0.1,0-0.3-0.1-0.4-0.1   c-0.1,0-0.2,0-0.3,0l0.5-0.3L71.1,25.8z M68.8,26.2c-0.3,0.2-0.7,0.4-1.1,0.6l-2.5-3.5c0,0,0-0.1,0-0.1c0,0,0-0.1,0-0.1l0.8-0.6   c0,0,0.1,0,0.1,0c0,0,0.1,0,0.1,0.1L68.8,26.2z M66.2,28.4C66.2,28.4,66.2,28.4,66.2,28.4l-0.6-0.8l1.3-1l0.4,0.5   C66.9,27.5,66.6,27.9,66.2,28.4z M51.9,8.2c0.1-0.4,0.3-0.8,0.6-1l2-1.4c0.7-0.5,1.6-0.3,2.1,0.4l11.8,15.9L67.1,23l-0.4-0.6   c-0.1-0.1-0.2-0.2-0.4-0.2c-0.2,0-0.3,0-0.5,0.1L65,22.8c-0.1,0.1-0.2,0.2-0.2,0.4c0,0.2,0,0.3,0.1,0.5l0.5,0.6c0,0,0,0-0.1,0   l-1.3,0.9l-11.8-16C51.9,9,51.8,8.6,51.9,8.2z M57.1,37.8c-0.3,1.3-1.1,3.4-2,3.4c0,0,0,0,0,0c-0.4,0-1.3-1.1-1.8-1.7   c-0.2-0.2-0.4-0.5-0.6-0.6l-0.5-1.6c0.7,0.1,1.5,0.2,2.3,0.2c1,0,1.9-0.2,2.6-0.5L57.1,37.8z M47.4,32c0.1,0,0.1,0,0.2,0   c0.3,0.7,0.6,1.3,1.1,1.8c-0.4-0.1-0.6-0.1-0.8-0.1C47.7,33.1,47.5,32.5,47.4,32z M55.4,29.6l1.6,0.7c0,0,0.1,0,0.1,0   c0,0,0.1,0,0.1,0c0.1,0,0.1-0.1,0.1-0.2c0-0.2,0.2-0.6,0.4-1c0.3-0.1,0.7-0.2,1-0.3c0.6,0.2,1,1.1,0.9,1.6l0,0.2c0,0,0,0,0,0   c-0.3,0.1-0.6,0.2-0.9,0.2c0,0,0,0,0,0c-4,0.9-8.9,0.7-10.7,0.6c-0.2-0.6-0.4-1.3-0.4-2.1c0,0,0,0,0,0c1,0.2,2.6,0.3,4.8,0.3   c0.3,0,0.5,0,0.8,0C53.7,29.8,54.6,29.7,55.4,29.6z M56.4,29.4c0.3,0,0.5-0.1,0.8-0.2c-0.1,0.2-0.1,0.3-0.2,0.4L56.4,29.4z    M60.6,32.4c-0.5,0.3-1.1,0.6-1.7,0.8l0-0.4c0-0.2,0.1-0.3,0.1-0.5c0.8-0.2,1-0.7,1.1-1.2c0.2-0.1,0.4-0.1,0.6-0.2   C60.7,31.4,60.6,32,60.6,32.4z M55,36.9C55,37,55,37,55,36.9c-0.2,0-0.3,0-0.5,0c-0.9,0-1.7-0.1-2.5-0.2l-0.4-1.3c0,0,0,0,0,0   l-0.2-0.9c1,0.1,2.2,0.1,3.4,0L55,36.9z M51.2,34.1l-0.4-1.9c0.2,0,0.5,0,0.7,0c0.9,0,2,0,3-0.1l0.2,2   C53.5,34.1,52.3,34.1,51.2,34.1z M55,32c1.2-0.1,2.3-0.3,3.5-0.5l-0.1,1.2c-0.1,0.2-0.1,0.5-0.2,0.7c-1,0.3-2,0.5-3,0.6L55,32z    M59.5,31.3c-0.1,0.3-0.2,0.5-0.6,0.6l0-0.4C59.2,31.4,59.3,31.3,59.5,31.3z M60.7,30.4c-0.2,0.1-0.4,0.1-0.6,0.2l0,0   c0.1-0.6-0.2-1.4-0.8-1.9c0.5-0.2,0.9-0.4,1.2-0.6C60.7,28.9,60.7,29.7,60.7,30.4z M47.4,31.5c0,0-0.1,0-0.1,0   c-0.2-1-0.3-1.7-0.4-2.2c0.1,0,0.1,0,0.2,0.1c0,0,0,0.1,0,0.1C47.1,30.2,47.2,30.8,47.4,31.5z M48.1,32c0.6,0,1.3,0.1,2.2,0.1   l0.4,1.9c-0.5,0-0.9-0.1-1.3-0.1C48.9,33.4,48.5,32.7,48.1,32z M50.8,34.5l0.1,0.6c-0.3-0.2-0.7-0.4-1-0.7   C50.2,34.5,50.5,34.5,50.8,34.5z M51.2,36l0.1,0.6c-0.3-0.1-0.6-0.2-0.8-0.3C50.6,36.2,50.9,36.1,51.2,36C51.1,36,51.1,36,51.2,36z    M55.4,36.9C55.4,36.9,55.4,36.9,55.4,36.9l-0.2-2.4c0.9-0.1,1.7-0.2,2.6-0.5c-0.4,0.6-0.8,1-0.8,1c0,0-0.1,0.1-0.1,0.2l0.1,1.3   C56.5,36.7,56,36.8,55.4,36.9z M57.5,35.3c0.2-0.2,0.5-0.6,0.8-1.1l-0.1,1.8c-0.2,0.1-0.4,0.3-0.7,0.4L57.5,35.3z M58.8,33.7   c0.6-0.2,1.1-0.4,1.6-0.7c-0.1,0.7-0.2,1.1-0.3,1.2c-0.1,0.1-0.6,0.7-1.5,1.3L58.8,33.7z M61,26.2c0,0.4-0.3,0.7-0.6,0.7   c-0.4,0-0.6-0.3-0.6-0.7s0.3-0.7,0.6-0.7C60.7,25.5,61,25.8,61,26.2z M53.1,19.9c5.7-0.4,6.8,3.5,7,5.1c-0.5,0.1-0.9,0.6-0.9,1.2   c0,0.1,0,0.1,0,0.2c0,0-0.1,0-0.1,0c-1.1,0.6-3.2,1.3-6.8,1.3c-2.3,0-3.7-0.2-4.6-0.5c0.1-0.2,0.1-0.3,0.1-0.5   c0-0.6-0.4-1.1-0.9-1.2C47.1,24,47.7,20.3,53.1,19.9z M46.8,25.9c0.4,0,0.6,0.3,0.6,0.7c0,0.4-0.3,0.7-0.6,0.7   c-0.1,0-0.2,0-0.2-0.1c0,0,0,0,0,0c0,0,0,0,0,0c-0.2-0.1-0.4-0.4-0.4-0.7C46.1,26.2,46.4,25.9,46.8,25.9z M46.8,27.8   c0.3,0,0.5-0.1,0.7-0.3c0.9,0.4,2.5,0.6,4.9,0.6c3.7,0,5.9-0.7,7-1.4c0.2,0.4,0.6,0.6,1,0.6c0,0,0,0,0,0c0,0,0,0.1,0,0.1   c-0.1,0.2-0.8,0.6-1.7,0.8c0,0,0,0,0,0c-0.3,0.1-0.7,0.2-1.1,0.3c0,0,0,0,0,0c-1.4,0.3-3.1,0.6-4.5,0.6c-3.5,0-5.8-0.2-6.3-0.7   c-0.2-0.2-0.3-0.5-0.2-0.9C46.7,27.8,46.7,27.8,46.8,27.8z M48.6,35.5c-0.2-0.4-0.4-0.9-0.5-1.3c0.3,0,0.6,0.1,1.1,0.2   c0.6,0.6,1.2,1,1.7,1.3c-0.4,0.2-0.7,0.3-1.1,0.5C49.1,35.8,48.7,35.6,48.6,35.5z M51.6,37.2l0.6,1.9c0,0,0,0.1,0.1,0.1   c0.2,0.2,0.4,0.4,0.6,0.7c1,1.1,1.7,1.8,2.2,1.8c0,0,0,0,0,0c1.5,0,2.4-3.4,2.5-3.8c0,0,0,0,0-0.1l0-1c1.9-0.9,3-2.2,3.1-2.3   c0,0,0,0,0-0.1c0-0.1,0.2-0.7,0.4-1.6l2.3-0.4l1.2,4.5c-2.8,3.3-6,6.7-6.7,7.5l-1.4-0.9c-0.4-0.4-5.8-5.3-9.3-5.4   c0.7-0.4,1.6-0.9,2.7-1.4C50.3,36.8,50.9,37,51.6,37.2z M45.2,39.4C45.2,39.4,45.2,39.4,45.2,39.4c0,0,0.2-0.2,0.8-0.7   c0.3-0.1,0.6-0.2,1-0.2c3,0,7.9,4.2,8.8,5.1c-2,2.1-3.3,6.1-3.6,7.1c-0.5-0.2-2.2-0.9-5.8-3.8C42.2,43.4,45,39.7,45.2,39.4z    M50.2,75.4c0.5-0.9,1.1-1.2,2-1.2l0.2,4.9c-1.4-0.6-2.2-1.4-2.4-1.6C49.8,76.8,49.8,76,50.2,75.4z M56.9,79.5l0.2-4.8   c0.1,0,0.2,0,0.3,0l-0.2,4.8C57.1,79.4,57,79.5,56.9,79.5z M56.4,79.6c-0.3,0-0.7,0.1-1.1,0.1l-0.2,0c-0.5,0-1-0.1-1.5-0.2   c0,0,0,0,0,0l-0.2-5.1c0,0,0,0,0,0c1.1,0.2,2,0.3,3.1,0.3L56.4,79.6C56.4,79.5,56.4,79.5,56.4,79.6z M53,74.3l0.2,5.1   c-0.1,0-0.3-0.1-0.4-0.1c0,0,0-0.1,0-0.1l-0.2-4.9C52.8,74.2,52.9,74.3,53,74.3z M50.9,86l-0.5-5.5c0.5,0.4,1.2,1,2,1.4   c0,0,0,0,0,0.1l0.2,5.4c-0.5-0.2-0.9-0.5-1.1-0.7c0,0,0,0,0,0c0,0,0,0,0,0C51.2,86.4,51,86.1,50.9,86z M56.5,87.8l0.2-5.1   c0,0,0-0.1,0-0.1c0.1,0,0.2-0.1,0.4-0.2l-0.3,5.3C56.7,87.8,56.6,87.8,56.5,87.8z M56,87.9c-0.2,0-0.4,0-0.6,0   c-0.5,0-0.9,0-1.3-0.1l-0.2-5.2c0.5,0.2,1,0.3,1.4,0.3c0.3,0,0.6-0.1,1-0.2L56,87.9z M53.6,87.7c-0.1,0-0.3-0.1-0.4-0.1L53,82.2   c0.1,0.1,0.3,0.1,0.4,0.2c0,0,0,0,0,0.1L53.6,87.7z M58.2,89.4c0,0.1,0,0.5-0.3,1c-0.3,0.5-1,1.5-2.6,1.7c-2.3,0.3-3.7-1.6-4.4-2.4   l0-0.1c-0.4-0.5,0.2-1.7,0.6-2.4c0.4,0.3,0.8,0.5,1.4,0.8c0,0,0,0,0,0c0.7,0.2,1.5,0.4,2.5,0.4c0.3,0,0.6,0,0.9-0.1c0,0,0,0,0,0   c0,0,0,0,0,0c0,0,0.1,0,0.1,0c0.3,0,0.5-0.1,0.8-0.2c0,0,0,0,0,0c0.2-0.1,0.5-0.2,0.7-0.3C57.9,88.3,58,89,58.2,89.4z M59.3,85.5   c0,0-0.4,1.4-2,2.1l0.3-5.3c0,0,0,0,0,0c0.9-0.5,1.7-1.1,2.3-1.7L59.3,85.5z M60,79.7c-0.5,0.7-3,2.7-4.7,2.7c-1.7,0-4.5-2-4.9-2.7   c-0.3-0.4-0.3-1.1-0.4-1.6c0.8,0.7,2.6,2,5.2,2l0.2,0c2.6-0.1,4.3-1.1,5.1-1.7C60.4,78.8,60.3,79.4,60,79.7z M60.8,74.8   c0.1,0.8-0.3,2.5-0.3,2.9c-0.2,0.2-1.2,1-2.8,1.6l0.2-4.7c0.5-0.1,1.1-0.2,1.7-0.4C59.8,74.2,60.7,74.2,60.8,74.8z M65.3,65.6   c0.4,0.7,1.4,2.5,1.8,4.2c-1.7,0-2.5-0.1-2.7-0.1c-0.2-0.5-0.7-2.3,0.7-3.7C65.1,65.8,65.2,65.7,65.3,65.6z M69.5,63.4   c0.4,0.5,1.8,2.7,2,5.9c0,0,0,0,0,0c-0.6,0.2-1.3,0.4-2.2,0.4c-0.3,0-0.5,0-0.8,0c-0.3-1.3-0.8-3.1-2.2-5.1   C67.2,64,67.9,63.7,69.5,63.4z M71.9,69.1c-0.2-2.9-1.4-5-1.9-5.8l0.3,0c1.6,1.9,1.8,5,1.9,5.7C72.1,69,72,69.1,71.9,69.1z    M67.5,69.7c-0.4-1.9-1.6-3.9-1.9-4.5l0.3-0.3c1.2,1.8,1.8,3.6,2,4.8C67.8,69.7,67.7,69.7,67.5,69.7z M64.5,70.1   c0.6,0.1,2,0.2,4.8,0.1c2.6-0.1,3.9-1.1,4.5-1.8l-0.3,4.4c-0.2,0.3-1.6,1.9-4,1.9c-2.3,0-3.8-0.7-4.3-0.9l-0.1-2c0,0,0,0,0-0.1   L64.5,70.1z M72.9,87.5c-0.1,0.1-0.2,0.4-0.6,0.8l0.3-13.9c0,0,0-0.1,0-0.1c0.4-0.2,0.6-0.5,0.9-0.7L72.9,87.5z M65.9,88   C65.9,88,65.9,88,65.9,88c-0.2-0.3-0.3-0.4-0.3-0.5l-0.4-13.1c0.4,0.2,1.1,0.4,2.1,0.6l0,13.9C66.6,88.6,66.2,88.3,65.9,88z    M67.7,75c0.1,0,0.3,0,0.4,0.1v14l-0.4-0.1L67.7,75z M68.6,75.1c0.2,0,0.5,0,0.8,0c0.8,0,1.4-0.1,2-0.3C71.2,80.2,71,87.8,71,89   c-0.5,0.2-1,0.3-1.7,0.3c-0.2,0-0.4,0-0.6,0V75.1z M71.5,88.8c0.1-1.8,0.3-8.9,0.4-14.1c0,0,0,0,0-0.1c0.1,0,0.2-0.1,0.2-0.1   l-0.3,14.1L71.5,88.8z M74.4,92.8c-0.2,0.6-0.9,1-2.2,1.4c-2.4,0.8-3.4-0.4-4.4-1.7c-0.3-0.4-0.7-0.8-1-1.1c-0.7-0.6-0.8-2-0.8-2.7   c0.3,0.3,0.8,0.6,1.5,0.8c0,0,0,0,0,0l0,0c0.3,0.1,0.5,0.1,0.9,0.2l0,0c0,0,0,0,0.1,0c0,0,0,0,0,0c0.3,0,0.5,0.1,0.8,0.1   c2.4,0,3.5-1.1,3.9-1.7C74.3,90.6,74.8,92,74.4,92.8z M73.9,67.4c-0.1,0.1-0.4,0.8-1.2,1.4c-0.1-1-0.4-3.5-1.7-5.4   c1.1,0.1,2,0.9,2.7,2.2C73.8,65.9,73.9,66.7,73.9,67.4z M68.1,52.9c0.3,0.2,0.7,0.5,1,0.8c1.2,1.5,3.1,7.5,3.8,9.9   c-0.7-0.6-1.5-0.9-2.4-0.8c0,0,0,0,0,0l0,0c-0.3,0-0.5,0-0.8,0.1l0,0c0,0,0,0,0,0c0,0,0,0,0,0c-2.2,0.4-3,0.8-4.4,2.1l0,0l0,0   c-0.2,0.2-0.3,0.3-0.5,0.5c-0.6,0.6-0.8,1.2-1,1.8l-1.9-3.8c0-0.1-0.1-0.1-0.2-0.1c0,0,0,0,0,0c-0.1,0-0.2,0.1-0.2,0.1   c-1.3,2.9-1.9,9.1-2,10.2c-2.3,0.7-3.8,0.5-5.7,0.2c-0.4-0.1-0.8-0.1-1.2-0.2c-0.3,0-0.5,0-0.8,0c0-1,0-5.4-0.5-9.7   c-0.5-3.9,0.1-6.7,0.4-7.6c0.1,0.1,0.2,0.1,0.3,0.2c1.3,0.8,3.1,1.2,5.1,1.2c2.1,0,4.4-0.4,6.8-1.3c1.4-0.5,3.3-1.9,4-3.5   c0-0.1,0.1-0.2,0.1-0.4C67.9,52.8,68,52.8,68.1,52.9z M67.2,50.6c0.3,0.7,0.3,1.5,0,2.3c-0.6,1.5-2.4,2.8-3.7,3.2   c-4.5,1.6-9,1.6-11.5,0.1c-1.2-0.7-1.8-1.6-2-2.8c-0.2-0.9-0.5-2.2-0.8-3.4c-0.1-0.2-0.1-0.4-0.2-0.6c2.5,1.7,3.4,1.8,3.5,1.8   c0,0,0,0,0,0c0.1,0,0.2-0.1,0.2-0.2c0,0,0.2-0.5,0.4-1.3c0.6,0.4,3.2,1.9,5.8,1.9c0.6,0,1.2-0.1,1.8-0.3c1.6-0.6,3.7-3.9,5.3-7.1   C66.2,45.9,66.5,49.1,67.2,50.6z M71,39.3c-0.4,0.1-1.7,0.5-2.9,0.9c0.6-1.2,0.9-2.1,1.1-2.4c0.3-0.1,0.6-0.4,0.8-0.7l0.7-1.7   c0,0,0,0,0.1,0c0.4,0,0.7-0.1,1-0.2L71,39.3z M71.7,38.5C71.6,38.5,71.6,38.5,71.7,38.5l0.5-3.8c0.1-0.1,0.2-0.2,0.3-0.3l0.7,0.9   c-0.1,0.3-0.2,0.6-0.2,0.9c0,0.8,0.2,1.4,0.8,1.9l0.2,0.1c0.1,0.1,0.3,0.2,0.4,0.4C73.3,38.6,72.2,38.5,71.7,38.5z M80.6,38.3   c0.3,0.1,0.3,0.1,0.4,0.3c0,0,0.1,0.1,0.1,0.1c0,0,0.1,0.1,0,0.2c-0.3,0.9-2.4,2.4-3.4,2.6c-0.2,0-0.3,0-0.3,0   c-0.1-0.2-0.3-0.7-0.3-1.3c0.1,0,0.1,0,0.2,0c0,0,0,0,0,0c0.6,0,1.2-0.3,1.8-0.8C79.8,39,80.3,38.6,80.6,38.3   C80.6,38.3,80.6,38.3,80.6,38.3z"/><path d="M56.5,24.8c0.1,0.3,0.4,0.5,0.7,0.5c0.1,0,0.1,0,0.2,0c0.2,0,0.3-0.2,0.4-0.3c0.1-0.2,0.1-0.4,0.1-0.5   c-0.2-0.7-0.6-1.7-1.1-2.2c-0.2-0.2-0.4-0.3-0.7-0.2c-0.2,0-0.4,0.2-0.5,0.4c-0.1,0.2-0.1,0.5,0.1,0.7   C55.9,23.4,56.3,24.1,56.5,24.8z M56,22.6c0-0.1,0.1-0.1,0.2-0.1c0.1,0,0.1,0,0.2,0.1c0.4,0.5,0.8,1.5,1,2.1c0,0.1,0,0.1,0,0.2   c0,0.1-0.1,0.1-0.2,0.1c-0.1,0-0.2,0-0.3-0.1c-0.2-0.8-0.6-1.5-0.9-1.9C56,22.7,56,22.6,56,22.6z"/><path d="M48.3,25.5c0.1,0,0.1,0,0.2,0c0.3,0,0.6-0.2,0.7-0.5c0.2-0.8,0.6-1.4,0.8-1.8c0.1-0.2,0.2-0.4,0.1-0.6   c-0.1-0.2-0.3-0.4-0.5-0.4c-0.3-0.1-0.5,0-0.7,0.2c-0.5,0.6-0.8,1.5-1.1,2.2c-0.1,0.2,0,0.4,0.1,0.5C47.9,25.3,48.1,25.4,48.3,25.5   z M48.2,24.7c0.2-0.5,0.5-1.5,1-2.1c0,0,0.1-0.1,0.2-0.1c0,0,0,0,0,0c0.1,0,0.1,0.1,0.2,0.1c0,0.1,0,0.1,0,0.2   c-0.3,0.4-0.7,1.1-0.9,1.9c0,0.1-0.1,0.2-0.2,0.2c0,0,0,0-0.1,0c-0.1,0-0.1-0.1-0.1-0.1C48.2,24.9,48.2,24.8,48.2,24.7z"/><path d="M33.1,43.7H17.9c-0.1,0-0.2,0.1-0.2,0.2v1.6v26.9c0,0.1,0.1,0.2,0.2,0.2h2.9c0.1,0,0.2-0.1,0.2-0.2V45.8h2.8v26.7   c0,0.1,0.1,0.2,0.2,0.2h2.9c0.1,0,0.2-0.1,0.2-0.2V45.8H30v26.7c0,0.1,0.1,0.2,0.2,0.2h2.9c0.1,0,0.2-0.1,0.2-0.2V45.5v-1.6   C33.4,43.8,33.2,43.7,33.1,43.7z M32.9,68.6h-1.4V47.9h1.4V68.6z M18.2,44.2h14.7v1.1H18.2V44.2z M20.6,68.6h-1.4V47.9h1.4V68.6z    M20.6,47.5h-1.7c-0.1,0-0.2,0.1-0.2,0.2v21.1c0,0.1,0.1,0.2,0.2,0.2h1.7v3.2h-2.4V45.8h2.4V47.5z M26.7,68.6h-1.4V47.9h1.4V68.6z    M26.7,47.5H25c-0.1,0-0.2,0.1-0.2,0.2v21.1c0,0.1,0.1,0.2,0.2,0.2h1.7v3.2h-2.4V45.8h2.4V47.5z M30.5,72.2V45.8h2.4v1.7h-1.7   c-0.1,0-0.2,0.1-0.2,0.2v21.1c0,0.1,0.1,0.2,0.2,0.2h1.7v3.2H30.5z"/><path d="M32.2,33.2c-1.7,0-3.2,1.4-3.2,3.2c0,1.7,1.4,3.2,3.2,3.2c1.7,0,3.2-1.4,3.2-3.2C35.3,34.6,33.9,33.2,32.2,33.2z M32.2,39   c-1.5,0-2.7-1.2-2.7-2.7c0-1.5,1.2-2.7,2.7-2.7c1.5,0,2.7,1.2,2.7,2.7C34.8,37.8,33.6,39,32.2,39z"/></g></g><g id="SvgjsG2418" featureKey="nameFeature-0" transform="matrix(0.8469973957828484,0,0,0.8469973957828484,158.99999919224032,24.477575784011528)" fill="#000"><path d="M32.68 10.879999999999999 l0 2.04 l-1.4 0.04 c-1.84 7.32 -4.12 21.28 -5.56 29.2 c-2.2 0.04 -5.2 0.76 -6.44 1.28 c-0.52 -4.6 -1.76 -14.32 -2.84 -22.48 c-1.12 7.76 -2.32 16.48 -3.24 21.64 c-2.08 0.12 -5.2 0.76 -6.72 2.04 c-0.76 -6.68 -2.68 -24.12 -3.76 -31.92 l-2.72 0 l0.2 -2.8 l11.04 0.4 l-0.4 2.16 l-2.72 0.04 c0.08 6.52 1.72 21.4 2.56 26.16 l0.4 0 c1.44 -6.56 3.48 -19.44 4.08 -27 l-2.36 0 l-0.08 -2.56 l10.4 0.4 l-0.2 1.52 l-3.04 0.2 c0.32 6.52 2.72 21.2 3.36 26.24 l0.36 0 c1.48 -7.12 2.96 -17.68 4.24 -24.4 l-2.4 0.04 l-0.36 -2.6 z M40.940999999999995 12.079999999999998 l-0.6 12.2 l3.96 -0.4 l1.76 -3.52 l0.44 0 l-0.64 8.76 l-0.44 0.04 l-1.04 -2.6 l-4.16 -0.12 l-0.6 12.08 l6.88 -0.84 l1.4 -4.6 l0.72 0.04 l0.36 7.36 l-16.4 0.52 l0.12 -1.68 l2.64 -0.32 l0.68 -26.92 l-2.6 0 l-0.44 -1.68 l16.2 -1 l-0.16 7.6 l-0.72 0.04 l-2.28 -4.96 l-5.08 0 z M67.082 35 l0.16 6.28 l-15.2 0.52 l-0.04 -2 l2 -0.28 l2.2 -27.92 l-2.96 -0.2 l-0.32 -1.88 l10.36 -0.4 l-0.36 2.88 l-2.56 -0.16 l-1.24 26.96 l5.96 -0.8 l1.28 -3.04 z M85.143 27.84 l1 0 c-1.48 10.04 -6.16 14.72 -10.52 14.72 c-11.88 0 -5.36 -34.36 2.4 -34.36 c1.24 0 2 1.08 2.4 2.52 l0.16 -3.52 c0.92 0 2.28 -0.2 3.64 -0.68 l-2.04 14 c-0.84 0.12 -2.2 0.36 -3.08 0.64 c0.44 -3.68 0.88 -10.84 -0.88 -10.84 c-3.6 0 -6.08 27.36 -0.2 27.36 c2.28 0 5.84 -4.52 7.12 -9.84 z M93.764 42.36 c-5.72 0 -7.96 -5.32 -7.96 -13.56 c0 -9.32 3.64 -19.8 10.24 -19.8 c5.56 0 7.4 7.36 7.4 15.28 c0 9.08 -3.36 18.08 -9.68 18.08 z M93.924 40 c3.52 0 4.36 -11.8 4.36 -19.88 c0 -5.12 -0.4 -9.2 -2.6 -9.2 c-3.28 0 -4.36 12 -4.36 19.48 c0 5.6 0.56 9.6 2.6 9.6 z M134.065 10 l-1.16 -0.08 c-1 8.72 -1.8 23.96 -2.08 30.48 l2.4 -0.16 l-0.16 2.88 l-10.28 -0.28 l-0.28 -1.96 l3.36 -0.2 c0.2 -5.52 0.8 -16.84 1.56 -23.52 l-0.36 -0.04 l-6.36 19.92 l-3.88 0.44 c-0.56 -6.44 -0.76 -17.72 -1 -23.64 l-0.36 -0.08 c-1.2 8.88 -1.92 16.4 -2.84 23.2 l1.28 -0.12 l0.32 3.48 l-7.72 0.56 l0.04 -3.12 l2.72 -0.4 c1.12 -6.92 2.32 -15.16 3.56 -23.84 l-1.68 -0.16 l-0.16 -3.44 c2.6 0.2 6 0.16 8.64 -0.12 c0.56 6.72 0.72 13.96 0.88 20.16 l7.36 -21.88 c1.76 -0.12 5.2 -0.56 6.84 -0.88 z M145.206 12.079999999999998 l-0.6 12.2 l3.96 -0.4 l1.76 -3.52 l0.44 0 l-0.64 8.76 l-0.44 0.04 l-1.04 -2.6 l-4.16 -0.12 l-0.6 12.08 l6.88 -0.84 l1.4 -4.6 l0.72 0.04 l0.36 7.36 l-16.4 0.52 l0.12 -1.68 l2.64 -0.32 l0.68 -26.92 l-2.6 0 l-0.44 -1.68 l16.2 -1 l-0.16 7.6 l-0.72 0.04 l-2.28 -4.96 l-5.08 0 z M162.928 9.280000000000001 l20.08 0.28 l-0.56 6.84 l-0.44 0.04 l-2.28 -4.52 l-4.08 0.04 l-1.92 26.64 l3.64 0.16 l0.04 1.76 l-11.76 0.84 l0.24 -3.12 l3.48 0.16 l1.04 -26.44 l-4.24 0.04 l-2.52 4.96 l-0.56 -0.04 z M191.029 42.36 c-5.72 0 -7.96 -5.32 -7.96 -13.56 c0 -9.32 3.64 -19.8 10.24 -19.8 c5.56 0 7.4 7.36 7.4 15.28 c0 9.08 -3.36 18.08 -9.68 18.08 z M191.189 40 c3.52 0 4.36 -11.8 4.36 -19.88 c0 -5.12 -0.4 -9.2 -2.6 -9.2 c-3.28 0 -4.36 12 -4.36 19.48 c0 5.6 0.56 9.6 2.6 9.6 z"/></g><g id="SvgjsG2419" featureKey="nameFeature-1" transform="matrix(0.9455379888561642,0,0,0.9455379888561642,159.0026646277972,65.83509142895721)" fill="#000"><path d="M16.04 27.84 l1 0 c-1.48 10.04 -6.16 14.72 -10.52 14.72 c-11.88 0 -5.36 -34.36 2.4 -34.36 c1.24 0 2 1.08 2.4 2.52 l0.16 -3.52 c0.92 0 2.28 -0.2 3.64 -0.68 l-2.04 14 c-0.84 0.12 -2.2 0.36 -3.08 0.64 c0.44 -3.68 0.88 -10.84 -0.88 -10.84 c-3.6 0 -6.08 27.36 -0.2 27.36 c2.28 0 5.84 -4.52 7.12 -9.84 z M25.021 10.32 c-1.08 0 -1.64 2 -1.64 6.12 c0 7.8 6.08 13 6.08 19.2 c0 4.32 -3.72 8.12 -6.64 8.12 c-1.6 0 -2.64 -1.4 -3.16 -3.16 l-0.12 2.48 c-0.8 -0.08 -1.88 0.2 -2.84 0.68 l1.64 -10.68 c0.8 -0.12 1.6 -0.28 2.4 -0.64 c-0.64 3.6 -0.08 9.2 2 9.2 c1.28 0 2 -1.96 2 -4.96 c0 -5.84 -6.28 -9.48 -6.28 -17.96 c0 -6.16 2.64 -10.52 5.96 -10.52 c1.56 0 2.64 1.2 3.12 2.96 l0.2 -3.96 c1.2 -0.08 2.8 -0.2 4.16 -0.68 l-2.88 15.6 c-0.84 -0.04 -2.2 0.24 -3.08 0.64 c1.08 -4.28 1.16 -12.44 -0.92 -12.44 z M46.842000000000006 29.92 c-4.32 -0.64 -7 -0.84 -11.28 -0.8 l0.24 -2.4 c4.68 -0.72 6.96 -0.64 10.64 -0.36 z M65.94300000000001 27.84 l1 0 c-1.48 10.04 -6.16 14.72 -10.52 14.72 c-11.88 0 -5.36 -34.36 2.4 -34.36 c1.24 0 2 1.08 2.4 2.52 l0.16 -3.52 c0.92 0 2.28 -0.2 3.64 -0.68 l-2.04 14 c-0.84 0.12 -2.2 0.36 -3.08 0.64 c0.44 -3.68 0.88 -10.84 -0.88 -10.84 c-3.6 0 -6.08 27.36 -0.2 27.36 c2.28 0 5.84 -4.52 7.12 -9.84 z M79.60400000000001 26 c1.04 5.2 3.36 11.84 5.92 14.56 c-1.68 0.32 -5.24 1.8 -6.44 3.16 c-0.68 -4.76 -1.48 -10.52 -2.88 -16.64 c-0.64 0.12 -1.28 0.2 -1.96 0.24 l-0.64 11.24 l2 -0.16 l-0.16 2.32 l-7.88 -0.28 l-0.12 -1.4 l1.96 -0.16 l1.16 -27.16 l-2.76 0.24 l0 -2.36 c3.32 -0.12 5.08 -0.32 9.24 -0.32 c5 0 7.52 2.6 7.52 7.6 c0 4.68 -1.96 7.6 -4.96 9.12 z M75.12400000000001 11.32 l-0.8 14.28 c3 -0.44 5.32 -2.76 5.32 -8.4 c0 -3.64 -0.76 -6.12 -4.52 -5.88 z M66.96400000000001 11.719999999999999 c0.16 0 0.36 0.12 0.36 0.52 c0 0.24 -0.24 0.48 -0.44 0.48 c-0.16 0 -0.28 -0.24 -0.28 -0.48 c0 -0.4 0.16 -0.52 0.36 -0.52 z M99.14500000000001 11.239999999999998 l-3.36 0.24 l-1.16 26.52 l2.68 -0.16 l-0.16 2.88 l-10.28 -0.28 l-0.28 -1.96 l2.92 -0.16 l2 -26.52 l-3.04 0.24 l0 -2.76 l10.96 0.36 z M116.92600000000002 27.84 l1 0 c-1.48 10.04 -6.16 14.72 -10.52 14.72 c-11.88 0 -5.36 -34.36 2.4 -34.36 c1.24 0 2 1.08 2.4 2.52 l0.16 -3.52 c0.92 0 2.28 -0.2 3.64 -0.68 l-2.04 14 c-0.84 0.12 -2.2 0.36 -3.08 0.64 c0.44 -3.68 0.88 -10.84 -0.88 -10.84 c-3.6 0 -6.08 27.36 -0.2 27.36 c2.28 0 5.84 -4.52 7.12 -9.84 z M129.467 22.8 c1.48 5.8 6.76 16.48 9.52 19.08 c-1.68 0.32 -5.32 1.88 -6.52 3.24 c-0.64 -4.6 -3.32 -12.04 -5.76 -18.04 l-0.8 1.2 l-0.68 10.32 l2.16 -0.2 l-0.16 2.32 l-7.88 -0.28 l-0.16 -1.32 l1.84 -0.16 l1.52 -27.72 l-3.08 0.2 l0 -2.16 l9.92 0.36 l-0.16 1.16 l-2.12 0.12 l-0.88 12.92 l7.28 -12.08 l-2.04 -0.04 l-0.24 -1.28 l7.52 -0.8 l0.08 2.2 l-2.28 -0.04 z M117.94700000000002 11.16 c0.16 0 0.36 0.12 0.36 0.52 c0 0.24 -0.24 0.48 -0.44 0.48 c-0.16 0 -0.28 -0.24 -0.28 -0.48 c0 -0.4 0.16 -0.52 0.36 -0.52 z M148.64800000000002 12.079999999999998 l-0.6 12.2 l3.96 -0.4 l1.76 -3.52 l0.44 0 l-0.64 8.76 l-0.44 0.04 l-1.04 -2.6 l-4.16 -0.12 l-0.6 12.08 l6.88 -0.84 l1.4 -4.6 l0.72 0.04 l0.36 7.36 l-16.4 0.52 l0.12 -1.68 l2.64 -0.32 l0.68 -26.92 l-2.6 0 l-0.44 -1.68 l16.2 -1 l-0.16 7.6 l-0.72 0.04 l-2.28 -4.96 l-5.08 0 z M159.70900000000003 9.280000000000001 l20.08 0.28 l-0.56 6.84 l-0.44 0.04 l-2.28 -4.52 l-4.08 0.04 l-1.92 26.64 l3.64 0.16 l0.04 1.76 l-11.76 0.84 l0.24 -3.12 l3.48 0.16 l1.04 -26.44 l-4.24 0.04 l-2.52 4.96 l-0.56 -0.04 z"/></g>
			</g>
		</svg>
	