
        <svg xmlns="http://www.w3.org/2000/svg" xmlns:xlink="http://www.w3.org/1999/xlink" version="1.1" width="3272.727272727273" height="2764.4586945809306" viewBox="0 0 3272.727272727273 2764.4586945809306">
			
			<g transform="scale(13.636363636363637) translate(10, 10)">
				<defs id="SvgjsDefs1309"/><g id="SvgjsG1310" featureKey="symbolFeature-0" transform="matrix(1.2192979900654604,0,0,1.2192979900654604,49.406573402031505,-12.473417880219335)" fill="#000"><g xmlns="http://www.w3.org/2000/svg"><path fill-rule="evenodd" clip-rule="evenodd" d="M80.11,49.695c0.003,5.951,1.481,10.771,3.303,10.771   c1.823,0,3.302-4.824,3.305-10.768c-0.003-5.951-1.479-10.773-3.303-10.773C81.591,38.926,80.107,43.748,80.11,49.695z"/><path fill-rule="evenodd" clip-rule="evenodd" d="M39.138,14.154c-15.075,6.26-25.529,19.93-25.529,35.779   c-0.004,15.852,10.454,29.52,25.536,35.777C30.504,78.232,24.764,65,24.764,49.934S30.508,21.637,39.138,14.154z"/><path fill-rule="evenodd" clip-rule="evenodd" d="M49.349,10.23c-7.066,0-12.803,17.854-12.803,39.857   c0,22.016,5.736,39.859,12.808,39.861c3.491-0.002,6.66-4.367,8.969-11.438c1.954,4.756,4.414,7.598,7.084,7.598   c6.367,0.002,11.532-16.066,11.527-35.883c0.005-19.816-5.156-35.887-11.521-35.879c-2.651,0-5.093,2.797-7.041,7.484   C56.057,14.668,52.871,10.234,49.349,10.23z M75.225,50.227c0.005,11.121-2.764,20.143-6.174,20.143   c-3.412,0-6.176-9.023-6.176-20.139c0-11.127,2.764-20.146,6.176-20.15C72.465,30.084,75.229,39.102,75.225,50.227z M57.792,23.318   c-2.395,6.576-3.907,16.191-3.907,26.908c-0.001,10.623,1.484,20.166,3.841,26.736c-1.15,1.559-2.418,2.424-3.748,2.424   c-5.202-0.004-9.414-13.117-9.414-29.299c0-16.174,4.212-29.293,9.407-29.293C55.333,20.797,56.626,21.701,57.792,23.318z"/></g></g><g id="SvgjsG1311" featureKey="nameFeature-0" transform="matrix(1.9222569539044412,0,0,1.9222569539044412,-0.4613412289673651,101.31438721586707)" fill="#000"><path d="M26.08 13.64 c-3.28 8.56 -6.08 19.68 -7.12 27.72 c-2.12 1 -4.6 0.2 -5.72 -1.04 c-1.56 -0.4 -2.88 -1.36 -3.28 -2.56 c-0.28 1.52 -0.56 2.92 -0.68 3.92 c-1.92 0.6 -4.4 -0.04 -5.64 -1.32 c-1.88 -0.44 -3.4 -1.68 -3.4 -3.56 c0.08 -9.12 -0.04 -14.64 1.44 -23.72 c0.36 -2.24 4.28 -3.2 6.08 -1.56 c-0.12 0.6 -0.24 1.2 -0.36 1.88 c0.6 -0.04 1.16 0.08 1.48 0.4 c-0.24 1.08 -0.44 2.32 -0.6 3.76 c1.16 -3.36 2.24 -5.68 3.24 -8.2 c1.6 -0.48 5.2 0.48 4.92 2.56 l-0.04 0.48 c0.72 0.36 1.32 0.88 1.24 1.4 l-0.32 2.64 c0.92 -2.96 1.8 -5.68 2.48 -7.52 c1.88 -0.56 5.68 1.36 5.04 3 l-0.04 0.08 c0.88 0.4 1.52 1 1.28 1.64 z M23.92 11.559999999999999 c0.4 -1.12 -2.28 -2.08 -3.36 -1.84 c-1.6 4.32 -4.4 14.52 -5.52 19.52 c-0.16 0.76 -1 0.52 -1 -0.2 c0.2 -8.64 0.88 -12.88 1.4 -17.24 c0.12 -0.8 -1.96 -1.88 -3.16 -1.6 c-1.68 4.16 -3.6 8.04 -6.28 19.08 c-0.16 0.6 -0.88 0.44 -0.88 -0.72 c0.2 -7.2 0.72 -13.04 1.56 -16.68 c-1.08 -0.76 -3.8 0.08 -4.04 1.36 c-1.44 9.04 -1.32 14.52 -1.4 23.56 c0 2.12 3.32 3.44 5.84 2.72 c0.52 -3.64 2.08 -11.4 3.52 -15.92 c0.16 -0.56 0.6 -0.16 0.56 0.2 c-0.12 3.2 -0.4 9.56 -0.32 13.16 c0.04 1.64 3.2 3.48 5.92 2.28 c1.08 -8.08 3.84 -19.12 7.16 -27.68 z M36.774 12.2 c-1.76 8.36 -2.2 19.48 -1.84 28.36 c-0.56 0.96 -3.92 2.68 -4.24 1.24 c-0.08 -0.28 -0.12 -0.56 -0.16 -0.84 c-1.2 0.36 -2.36 0.2 -2.64 -1 c-0.28 -1.28 -0.28 -2.52 -0.2 -3.8 l-0.52 0.12 c-0.4 1.84 -0.76 4.56 -0.92 5.72 c-0.88 0.36 -2.36 -0.2 -3.16 -1.24 c-1.84 -0.32 -3.6 -1.88 -3.24 -3.92 c1.6 -9.28 4.64 -18.6 6.84 -24.28 c1.04 -2.76 7.6 -4.52 8.92 -2.76 c-0.12 0.64 -0.24 1.48 -0.36 2.16 c0.76 -0.04 1.36 0 1.52 0.24 z M27.614000000000004 12.920000000000002 c-2.16 5.64 -5.2 14.88 -6.8 24.08 c-0.32 1.84 2.08 3.24 3.24 2.84 c0.16 -1.2 0.56 -3.8 0.96 -5.72 l3.84 -1 c-0.04 1.72 -0.16 2.8 -0.2 3.8 c-0.04 0.96 0 1.84 0.24 2.84 c0.12 0.6 0.92 0.44 1.76 0.12 c0.92 -0.32 1.8 -0.96 2.08 -1.36 c-0.36 -8.84 0.08 -19.92 1.8 -28.28 c-0.72 -0.44 -6.04 0.4 -6.92 2.68 z M29.134 28.439999999999998 c-0.96 0.24 -1.96 0.48 -3.12 0.84 c0.88 -3.48 2.08 -6.8 3.04 -10.2 c0.4 -1.52 1.2 -1.64 1.08 -0.8 c-0.48 4.16 -0.76 7.28 -1 10.16 z M51.468 17.76 c0.04 4.44 -1.56 9.28 -4.92 12.44 c0.44 3.44 1.68 7.56 2.8 10.88 c-0.88 1.04 -4.04 1.88 -4.52 0.52 c-0.04 -0.2 -0.12 -0.44 -0.24 -0.72 c-1.16 0.12 -2.2 -0.2 -2.52 -1 c-0.16 -0.48 -0.4 -1.28 -0.64 -2.24 c-0.2 1.6 -0.32 3.2 -0.32 4.64 c-0.84 0.2 -3.68 -0.04 -3.96 -1.44 c-1.52 -0.28 -2.88 -1.04 -2.84 -2.32 c0.2 -5 3.48 -22.6 5 -27.4 c0.92 -1.2 3.32 -3.04 6 -2.36 c2.2 0.52 3.8 2.4 4.52 4.52 c1 1.24 1.64 2.92 1.64 4.48 z M49.26800000000001 15.760000000000002 c-0.04 -2.6 -1.72 -5.44 -4.16 -6.04 c-2.16 -0.52 -4.16 0.92 -4.92 1.84 c-1.44 4.68 -4.68 22.12 -4.88 27 c-0.04 1.44 2.6 1.68 3.6 1.56 c0.04 -3.12 0.72 -6.76 1.16 -10 c0.08 -0.52 0.64 -0.44 0.76 0.2 c0.68 3.44 1.68 7.76 2.2 9.2 c0.36 1.04 3.08 0.52 4.12 -0.48 c-1.16 -3.32 -2.36 -7.4 -2.8 -10.92 c3.4 -3.16 4.96 -7.96 4.92 -12.36 z M44.62800000000001 15.120000000000001 c1.52 3.08 0.72 5.6 -1.28 8.8 c-0.4 0.64 -1.48 1.32 -2.4 1.32 c0.72 -4.24 1.16 -6.12 2.16 -10 c0.4 -0.48 1.24 -0.64 1.52 -0.12 z M65.242 17.76 c0.04 4.44 -1.56 9.28 -4.92 12.44 c0.44 3.44 1.68 7.56 2.8 10.88 c-0.88 1.04 -4.04 1.88 -4.52 0.52 c-0.04 -0.2 -0.12 -0.44 -0.24 -0.72 c-1.16 0.12 -2.2 -0.2 -2.52 -1 c-0.16 -0.48 -0.4 -1.28 -0.64 -2.24 c-0.2 1.6 -0.32 3.2 -0.32 4.64 c-0.84 0.2 -3.68 -0.04 -3.96 -1.44 c-1.52 -0.28 -2.88 -1.04 -2.84 -2.32 c0.2 -5 3.48 -22.6 5 -27.4 c0.92 -1.2 3.32 -3.04 6 -2.36 c2.2 0.52 3.8 2.4 4.52 4.52 c1 1.24 1.64 2.92 1.64 4.48 z M63.04200000000001 15.760000000000002 c-0.04 -2.6 -1.72 -5.44 -4.16 -6.04 c-2.16 -0.52 -4.16 0.92 -4.92 1.84 c-1.44 4.68 -4.68 22.12 -4.88 27 c-0.04 1.44 2.6 1.68 3.6 1.56 c0.04 -3.12 0.72 -6.76 1.16 -10 c0.08 -0.52 0.64 -0.44 0.76 0.2 c0.68 3.44 1.68 7.76 2.2 9.2 c0.36 1.04 3.08 0.52 4.12 -0.48 c-1.16 -3.32 -2.36 -7.4 -2.8 -10.92 c3.4 -3.16 4.96 -7.96 4.92 -12.36 z M58.40200000000001 15.120000000000001 c1.52 3.08 0.72 5.6 -1.28 8.8 c-0.4 0.64 -1.48 1.32 -2.4 1.32 c0.72 -4.24 1.16 -6.12 2.16 -10 c0.4 -0.48 1.24 -0.64 1.52 -0.12 z M74.13600000000001 13.399999999999999 c-2 7.88 -3.96 19.24 -4.76 28.16 c-1.16 0.32 -2.84 -0.36 -3.68 -1.36 c-1.8 -0.44 -3.4 -1.72 -3.24 -3.4 c0.64 -6.4 3.2 -17.96 4.96 -27.52 c2.36 -0.44 4.56 0.36 5.6 1.96 l-0.28 1.04 c0.6 0.28 1.12 0.68 1.4 1.12 z M71.936 11.399999999999999 c-0.6 -0.8 -2.2 -1.48 -3.64 -1.28 c-1.68 9 -4.2 20.4 -4.84 26.76 c-0.12 1.4 2.2 2.84 3.76 2.52 c0.76 -8.88 2.72 -20.12 4.72 -28 z M86.35000000000001 14.96 c2.12 4.72 1.12 10.4 -0.08 15.32 c-0.8 3.44 -2.12 6.68 -3.92 9.68 c-0.92 1.48 -2.48 2.48 -4.08 2.36 c-0.92 -0.08 -1.76 -0.56 -2.36 -1.24 c-1.72 -0.28 -3.16 -1.76 -3.6 -3.28 c-2.32 -8.04 -0.08 -16.72 3.04 -22.92 c1.04 -2.08 2.84 -4.92 6 -4.92 c1.88 0 3.2 1.48 3.72 2.68 c0.16 0.36 0.32 0.72 0.44 1.08 c0.36 0.4 0.64 0.8 0.84 1.24 z M84.15 13.04 c-0.44 -1 -1.48 -2.08 -2.8 -2.08 c-2.52 0 -4.04 2.24 -5.12 4.36 c-3.04 6.08 -5.2 14.48 -2.96 22.2 c0.36 1.28 1.6 2.48 3 2.6 c1.52 0.12 3.04 -0.84 3.88 -2.24 c1.84 -3 3.12 -6.24 3.92 -9.64 c1.2 -4.92 2.2 -10.52 0.08 -15.2 z M81.55000000000001 17.32 c0.72 5.68 -0.52 11.76 -3.24 16.6 c-0.32 0.56 -1.28 1.04 -1.76 0.4 c-0.88 -1.28 -0.76 -4.72 -0.52 -6.76 c0.48 -3.84 2.16 -8.72 4 -10.72 c0.4 -0.44 1.36 -0.68 1.52 0.48 z M80.75000000000001 21.16 c-1.2 2.36 -2.16 5.64 -2.52 8.44 c-0.08 0.76 -0.16 1.72 -0.16 2.68 c1.64 -3.36 2.6 -7.24 2.68 -11.12 z M101.68400000000001 17.76 c0.04 4.44 -1.56 9.28 -4.92 12.44 c0.44 3.44 1.68 7.56 2.8 10.88 c-0.88 1.04 -4.04 1.88 -4.52 0.52 c-0.04 -0.2 -0.12 -0.44 -0.24 -0.72 c-1.16 0.12 -2.2 -0.2 -2.52 -1 c-0.16 -0.48 -0.4 -1.28 -0.64 -2.24 c-0.2 1.6 -0.32 3.2 -0.32 4.64 c-0.84 0.2 -3.68 -0.04 -3.96 -1.44 c-1.52 -0.28 -2.88 -1.04 -2.84 -2.32 c0.2 -5 3.48 -22.6 5 -27.4 c0.92 -1.2 3.32 -3.04 6 -2.36 c2.2 0.52 3.8 2.4 4.52 4.52 c1 1.24 1.64 2.92 1.64 4.48 z M99.48400000000001 15.760000000000002 c-0.04 -2.6 -1.72 -5.44 -4.16 -6.04 c-2.16 -0.52 -4.16 0.92 -4.92 1.84 c-1.44 4.68 -4.68 22.12 -4.88 27 c-0.04 1.44 2.6 1.68 3.6 1.56 c0.04 -3.12 0.72 -6.76 1.16 -10 c0.08 -0.52 0.64 -0.44 0.76 0.2 c0.68 3.44 1.68 7.76 2.2 9.2 c0.36 1.04 3.08 0.52 4.12 -0.48 c-1.16 -3.32 -2.36 -7.4 -2.8 -10.92 c3.4 -3.16 4.96 -7.96 4.92 -12.36 z M94.84400000000001 15.120000000000001 c1.52 3.08 0.72 5.6 -1.28 8.8 c-0.4 0.64 -1.48 1.32 -2.4 1.32 c0.72 -4.24 1.16 -6.12 2.16 -10 c0.4 -0.48 1.24 -0.64 1.52 -0.12 z M114.65800000000002 16.56 c-0.12 0.92 -0.36 1.2 -1.48 1.8 c-2.8 1.48 -5.04 3.56 -5.6 6.28 c-0.08 0.4 -0.08 0.8 0 1.2 c1.28 1.6 3 2.92 3.52 4.92 c0.96 1.28 1.68 2.68 1.24 4.52 c-0.76 3.04 -3.48 5.76 -6.64 6.8 c-1.28 0.44 -2.24 -0.12 -2.88 -1.04 c-2.52 0.04 -3.64 -3.08 -3.56 -5.44 c2.2 -0.4 5.28 -1.12 5.32 -3.2 c0.04 -2.84 -4.44 -3.8 -4.72 -7.72 c-0.48 -5.92 4.96 -12.48 11.28 -16.52 c0.84 0.84 1.48 1.88 1.88 3.04 l0 -0.04 c1.04 1.08 1.84 3.24 1.64 5.4 z M112.45800000000001 14.52 c0.2 -2 -0.52 -4.04 -1.48 -5.08 c-5.6 3.68 -10.56 9.84 -10.12 15.16 c0.24 3.48 4.76 4.32 4.72 7.84 c-0.04 2.52 -3.48 3.64 -5.36 4 c0 1.96 1.36 4.12 3.4 3.44 c3.12 -1 5.8 -3.68 6.52 -6.64 c1.16 -4.8 -5.6 -6.64 -4.76 -10.64 c0.6 -2.8 2.88 -4.92 5.72 -6.44 c1.08 -0.56 1.24 -0.8 1.36 -1.64 z"/></g>
			</g>
		</svg>
	