
        <svg xmlns="http://www.w3.org/2000/svg" xmlns:xlink="http://www.w3.org/1999/xlink" version="1.1" width="3300" 
        height="3294.9475566265924" viewBox="0 0 3300 3294.9475566265924">
			<rect fill="#ee2b47" width="3300" height="3294.9475566265924"/>
			<g transform="scale(15) translate(10, 10)">
				<defs id="SvgjsDefs1166"></defs><g id="SvgjsG1167" featureKey="rDwwlG-0" transform="matrix(1.1680332872377,0,0,1.1680332872377,41.59833675203835,0)" fill="#f6f6f6"><g xmlns="http://www.w3.org/2000/svg"><rect x="7.193" y="21.403" fill-rule="evenodd" clip-rule="evenodd" width="8.827" height="78.597"></rect><path fill-rule="evenodd" clip-rule="evenodd" d="M64.184,17.359c5.943,0,10.766,4.875,10.766,10.884   c0,6.006-4.822,10.883-10.766,10.883c-5.94,0-10.759-4.877-10.759-10.883C53.425,22.233,58.243,17.359,64.184,17.359"></path><polygon fill-rule="evenodd" clip-rule="evenodd" points="11.786,10.641 11.786,15.722 16.021,15.722 20.373,17.896 31.375,17.896    35.731,15.722 39.963,15.722 39.963,10.641 35.731,10.641 31.375,8.587 20.373,8.587 16.021,10.641  "></polygon><rect x="35.731" y="21.403" fill-rule="evenodd" clip-rule="evenodd" width="8.949" height="78.597"></rect><polygon fill-rule="evenodd" clip-rule="evenodd" points="56.527,0 55.32,4.838 59.552,5.927 63.18,8.948 73.938,11.73    78.538,10.641 82.77,11.612 83.977,6.773 79.745,5.806 76.117,2.664 65.354,0 60.759,0.971  "></polygon><polygon fill-rule="evenodd" clip-rule="evenodd" points="84.219,21.885 62.815,97.586 71.4,100 92.807,24.424  "></polygon></g></g><g id="SvgjsG1168" featureKey="4AZ1rv-0" transform="matrix(3.263707636814917,0,0,3.263707636814917,-4.438641265563193,118.59268469534463)" fill="#f6f6f6"><path d="M1.36 20 l0 -13.22 l3.36 0 l0 10.34 l5.18 0 l0 2.88 l-8.54 0 z M19.9 16.04 l-5.92 0 c0.08 1.34 0.46 1.92 1.76 1.92 c0.8 0 1.28 -0.22 1.42 -0.94 l2.74 0.48 c-0.52 1.74 -1.76 2.78 -4.26 2.78 c-3.12 0 -4.92 -1.62 -4.92 -4.84 c0 -2.6 1.16 -5.06 4.78 -5.06 c2.94 0 4.4 1.62 4.4 4.64 l0 1.02 z M15.38 12.6 c-0.76 0 -1.2 0.36 -1.36 1.54 l2.6 0 l0 -0.02 c0 -1.1 -0.42 -1.52 -1.24 -1.52 z M21.34 13.84 c0 -2.14 1.58 -3.46 4.5 -3.46 c0.94 0 1.74 0.14 2.4 0.42 c0.22 -0.28 0.3 -0.5 0.3 -1.1 l0 -1.14 l2.46 0.38 c0.06 0.36 0.08 0.66 0.08 0.86 c0 0.82 -0.34 1.52 -1.42 2.04 c0.38 0.5 0.6 1.16 0.6 1.92 c0 2.2 -1.66 3.5 -4.52 3.5 c-0.66 0 -1.24 -0.06 -1.76 -0.2 c-0.2 0.16 -0.32 0.34 -0.32 0.52 c0 0.76 1.9 0.7 3.38 0.8 c2.48 0.18 3.94 0.88 3.94 2.92 c0 2.78 -2.68 3.54 -5.1 3.54 c-2.68 0 -4.76 -0.92 -4.76 -2.56 c0 -1.02 0.76 -1.64 1.62 -2.16 c-1 -0.26 -1.62 -0.86 -1.62 -1.74 c0 -0.76 0.48 -1.38 1.34 -2.04 c-0.74 -0.58 -1.12 -1.44 -1.12 -2.5 z M26.94 20.86 c-1.08 -0.06 -1.48 -0.1 -2.26 -0.18 c-0.7 0.48 -0.88 0.74 -0.88 1.04 c0 0.44 0.38 0.9 2.08 0.9 c1.38 0 2.28 -0.3 2.28 -0.96 c0 -0.46 -0.42 -0.76 -1.22 -0.8 z M25.78 15.2 c0.82 0 1.24 -0.5 1.24 -1.4 c0 -0.88 -0.42 -1.36 -1.22 -1.36 s-1.22 0.5 -1.22 1.4 c0 0.84 0.36 1.36 1.2 1.36 z M40.9 16.04 l-5.92 0 c0.08 1.34 0.46 1.92 1.76 1.92 c0.8 0 1.28 -0.22 1.42 -0.94 l2.74 0.48 c-0.52 1.74 -1.76 2.78 -4.26 2.78 c-3.12 0 -4.92 -1.62 -4.92 -4.84 c0 -2.6 1.16 -5.06 4.78 -5.06 c2.94 0 4.4 1.62 4.4 4.64 l0 1.02 z M36.38 12.6 c-0.76 0 -1.2 0.36 -1.36 1.54 l2.6 0 l0 -0.02 c0 -1.1 -0.42 -1.52 -1.24 -1.52 z M42.54 20 l0 -9.34 l2.9 0 l0 1.48 c0.24 -0.56 1.02 -1.76 3.1 -1.76 c1.38 0 2.98 0.56 2.98 3.48 l0 6.14 l-3.12 0 l0 -5.34 c0 -1.1 -0.26 -1.64 -0.9 -1.64 c-1.12 0 -1.68 1.56 -1.84 2.16 l0 4.82 l-3.12 0 z M60.1 20 l-0.12 -1.06 c-0.46 0.66 -1.18 1.34 -2.74 1.34 c-3.14 0 -4.14 -2.7 -4.14 -5 c0 -2.92 1.6 -4.9 4.36 -4.9 c1 0 1.64 0.26 2.06 0.64 l0 -5.38 l3.12 0 l0 14.36 l-2.54 0 z M57.88 17.96 c1.12 0 1.64 -0.84 1.64 -2.76 c0 -1.36 -0.26 -2.5 -1.6 -2.5 c-1.1 0 -1.58 0.78 -1.58 2.68 c0 1.76 0.42 2.58 1.54 2.58 z"></path></g>
			</g>
		</svg>
	