
        <svg xmlns="http://www.w3.org/2000/svg" xmlns:xlink="http://www.w3.org/1999/xlink" version="1.1" width="3265.0536903629195" 
        height="1338.5211363327444" viewBox="0 0 3265.0536903629195 1338.5211363327444">
			
			<g transform="scale(13.252684518145983) translate(10, 10)">
				<defs id="SvgjsDefs1212"></defs><g id="SvgjsG1213" featureKey="0LeO0L-0" transform="matrix(5.788086286756047,0,0,5.788086286756047,-2.034559103084575,-34.76324648113459)" fill="#d72323"><path d="M5.459 6.006 c1.9531 0 3.1836 0.60872 3.6914 1.8262 c0.14323 0.29948 0.21484 0.49805 0.21484 0.5957 l-1.2305 0 l0 0.37109 l1.3184 0 l0 -0.019531 c0 -0.065107 -0.029297 -0.18229 -0.087891 -0.35156 l2.2559 0 l0 0.37109 l-2.1387 0 l0 0.029297 c0.11067 0.52083 0.1888 1.084 0.23438 1.6895 c0 0.032549 -0.85612 0.094395 -2.5684 0.18554 l0 -0.019531 c0 -1.556 -0.53386 -2.334 -1.6016 -2.334 l-0.27344 0 c-0.80078 0 -1.2891 0.33854 -1.4648 1.0156 c-0.14323 0.57292 -0.21484 1.3249 -0.21484 2.2559 l0 1.9043 l-0.019531 0.2832 l-0.88867 0 l0 0.44922 l0.88867 0 l0 3.3887 l3.7695 0 l0 -3.5254 l2.1582 0 l0 3.5254 l-1.2012 0 l0 2.168 l-2.5098 0 l0 0.18555 l-1.9531 0 l0 -0.18555 l-1.9824 0 l0 -1.084 l1.3184 0 l0 -0.46875 l-1.9727 0 l0 -1.6016 l-0.84961 0 l0 -1.9727 l0.44922 0 c-0.019531 -0.82031 -0.029297 -1.4648 -0.029297 -1.9336 c0 -2.1289 0.10417 -3.47 0.3125 -4.0234 c0.1888 -0.63802 0.5013 -1.1882 0.9375 -1.6504 c0.77474 -0.71614 1.9206 -1.0742 3.4375 -1.0742 z M3.7598 16.9434 l0.11719 0 l0 0.48828 l0.2832 0 l0 0.14648 l-0.40039 0 c-0.026045 0 -0.039063 -0.016279 -0.039063 -0.048828 l0 -0.53711 c0 -0.032549 0.013018 -0.048828 0.039063 -0.048828 z M6.6992 16.9434 l0.14649 0.0000095367 c0.078125 0.065107 0.11719 0.12695 0.11719 0.18555 c0.013018 0 0.068359 -0.061846 0.16602 -0.18555 l0.11719 0 l0 0.048828 c-0.11067 0.14323 -0.16602 0.24414 -0.16602 0.30273 c0.019531 0 0.081377 0.084639 0.18555 0.25391 l0 0.029297 l-0.13672 0 l-0.16602 -0.18555 c-0.058594 0.11067 -0.10417 0.17252 -0.13672 0.18554 l-0.14648 0 c0.032549 -0.065107 0.10416 -0.17578 0.21483 -0.33203 l-0.19531 -0.2832 l0 -0.019531 z M8.6328 17.793 c0.15625 0.039063 0.23438 0.084629 0.23438 0.13671 l0 0.097656 l-0.097656 0 l-0.087891 -0.097656 l-0.097656 0 c-0.032549 0.0065136 -0.048828 0.022793 -0.048828 0.048838 l0 0.048828 c0.24089 0.045576 0.36133 0.097656 0.36133 0.15625 l0 0.078125 c0 0.1237 -0.071611 0.18555 -0.21484 0.18555 l-0.097656 0 c-0.084639 0 -0.153 -0.045576 -0.20508 -0.13672 l0 -0.097656 l0.13672 0 c0 0.078125 0.045576 0.11719 0.13672 0.11719 l0.029297 0 c0.019531 0 0.042314 -0.022783 0.068359 -0.068359 c0 -0.019531 -0.11067 -0.074873 -0.33203 -0.16602 l-0.019531 -0.048828 l0 -0.11719 c0 -0.05208 0.078125 -0.097656 0.23438 -0.13672 z"></path></g><g id="SvgjsG1214" featureKey="pulpyG-0" transform="matrix(1.9649744635578916,0,0,1.9649744635578916,88.82101504077342,16.192640450431597)" fill="#111111"><path d="M2.86 20 c-0.84 0 -1.4267 -0.17334 -1.76 -0.52 s-0.5 -0.92 -0.5 -1.72 l0 -10.48 c0 -0.57334 0.16334 -1.0133 0.49 -1.32 s0.73 -0.46 1.21 -0.46 l3.82 0 l0.5 2.7 l-2.78 0 c-0.17334 0 -0.26 0.09334 -0.26 0.28 l0 8.54 c0 0.18666 0.08666 0.28 0.26 0.28 l2.78 0 l-0.52 2.7 l-3.24 0 z M8.24 20 l-0.51996 -2.7 l3.12 0 c0.22666 0 0.34 -0.1 0.34 -0.3 l0 -2.64 c0 -0.2 -0.04 -0.32 -0.12 -0.36 s-0.22 -0.06 -0.42 -0.06 l-1.5 0 c-0.21334 0 -0.41668 -0.01666 -0.61002 -0.05 s-0.36668 -0.11 -0.52002 -0.23 s-0.27334 -0.28666 -0.36 -0.5 s-0.13 -0.5 -0.13 -0.86 l0 -4.92 c0 -0.57334 0.15666 -1.03 0.47 -1.37 s0.81 -0.51 1.49 -0.51 l4 0 l0.5 2.7 l-3.28 0 c-0.24 0 -0.36 0.10666 -0.36 0.32 l0 2.64 c0 0.14666 0.03666 0.24666 0.11 0.3 s0.18334 0.08 0.33 0.08 l1.82 0 c0.46666 0 0.82332 0.11 1.07 0.33 s0.37 0.60334 0.37 1.15 l0 4.78 c0 0.8 -0.16334 1.3667 -0.49 1.7 s-0.90332 0.5 -1.73 0.5 l-3.58 0 z M15.440000000000001 11.78 l4.26 0 l-0.2 2.38 l-4.26 0 z M23.16 20 c-0.84 0 -1.4267 -0.17334 -1.76 -0.52 s-0.5 -0.92 -0.5 -1.72 l0 -10.48 c0 -0.57334 0.16334 -1.0133 0.49 -1.32 s0.73 -0.46 1.21 -0.46 l3.82 0 l0.5 2.7 l-2.78 0 c-0.17334 0 -0.26 0.09334 -0.26 0.28 l0 8.54 c0 0.18666 0.08666 0.28 0.26 0.28 l2.78 0 l-0.52 2.7 l-3.24 0 z M30.82 8.04 l0 5 l1.42 0 c0.18666 0 0.28 -0.1 0.28 -0.3 l0 -4.4 c0 -0.2 -0.09334 -0.3 -0.28 -0.3 l-1.42 0 z M35.38 14.1 c0 0.32 -0.11 0.61334 -0.33 0.88 s-0.54334 0.4 -0.97 0.4 l1.52 4.62 l-3 0 l-1.4 -4.62 l-0.38 0 l0 4.62 l-2.9 0 l0 -14.5 l5.5 0 c0.68 0 1.1767 0.17 1.49 0.51 s0.47 0.79666 0.47 1.37 l0 6.72 z M36.620000000000005 5.5 l2.9 0 l0 14.5 l-2.9 0 l0 -14.5 z M42.980000000000004 20 c-0.84 0 -1.4267 -0.17334 -1.76 -0.52 s-0.5 -0.92 -0.5 -1.72 l0 -10.48 c0 -0.57334 0.16334 -1.0133 0.49 -1.32 s0.73 -0.46 1.21 -0.46 l3.82 0 l0.5 2.7 l-2.78 0 c-0.17334 0 -0.26 0.09334 -0.26 0.28 l0 8.54 c0 0.18666 0.08666 0.28 0.26 0.28 l2.78 0 l-0.52 2.7 l-3.24 0 z M50.70000000000001 11.72 l0.44 0 l1.48 -6.22 l3 0 l-1.74 6.68 l1.72 7.82 l-3.18 0 l-1.14 -5.98 l-0.58 0 l0 5.98 l-2.96 0 l0 -14.5 l2.96 0 l0 6.22 l0 0 z M56.42000000000001 5.5 l5.64 0 l0.5 2.7 l-3.16 0 l0 3.44 l2.4 0 l0 2.5 l-2.4 0 l0 3.16 l3.04 0 l-0.5 2.7 l-5.52 0 l0 -14.5 z M69.28 5.5 l0.72 2.7 l-1.94 0 l0 11.8 l-2.96 0 l0 -11.8 l-1.94 0 l0.76 -2.7 l5.36 0 z"></path></g>
			</g>
		</svg>
	